<svg xmlns="http://www.w3.org/2000/svg" viewBox="0 0 128 128">
  <defs>
    <linearGradient id="pe-gradient" x1="0" y1="0" x2="1" y2="1">
      <stop offset="0" stop-color="#4f46e5"/>
      <stop offset="1" stop-color="#312e81"/>
    </linearGradient>
  </defs>
  <rect width="128" height="128" rx="28" fill="url(#pe-gradient)"/>
  <circle cx="64" cy="64" r="44" fill="#0f172a" opacity="0.2"/>
  <g fill="#ffffff">
    <path d="M52 38c-8 0-14 6-14 14v24c0 8 6 14 14 14h10c10 0 18-8 18-18s-8-18-18-18H52zm0 12h10c3 0 6 3 6 6s-3 6-6 6H52V50z"/>
    <rect x="72" y="34" width="8" height="44" rx="4"/>
    <rect x="86" y="34" width="6" height="28" rx="3"/>
    <rect x="96" y="34" width="6" height="28" rx="3"/>
  </g>
</svg>
